<?xml version="1.0" encoding="utf-8"?>
<!-- Generator: Adobe Illustrator 26.5.0, SVG Export Plug-In . SVG Version: 6.00 Build 0)  -->
<svg version="1.1" id="レイヤー_1" xmlns="http://www.w3.org/2000/svg" xmlns:xlink="http://www.w3.org/1999/xlink" x="0px"
	 y="0px" viewBox="0 0 403 71" style="enable-background:new 0 0 403 71;" xml:space="preserve">
<style type="text/css">
	.st0{fill:#FFFFFF;}
</style>
<g>
	<path class="st0" d="M177.6,15.2c3.8,0,7.6,0,11.4,0c2.8,10,5.6,20,8.4,30c0,0,0.1,0,0.1,0c2.8-10,5.6-20,8.4-30
		c3.8,0,7.6,0,11.4,0c0,13.4,0,26.8,0,40.3c-2.5,0-5,0-7.5,0c0-9.7,0-19.5,0-29.2c0,0-0.1,0-0.1,0c-0.1,0.3-0.2,0.6-0.3,0.9
		c-2.6,9.3-5.1,18.6-7.7,27.9c-0.1,0.3-0.2,0.5-0.6,0.5c-2.4,0-4.9,0-7.4,0c-0.3,0-0.4-0.1-0.5-0.4c-2.6-9.5-5.2-19-7.9-28.5
		c0-0.1-0.1-0.2-0.2-0.3c0,9.7,0,19.4,0,29.2c-2.5,0-5,0-7.6,0C177.6,42.1,177.6,28.7,177.6,15.2z"/>
	<path class="st0" d="M151.7,43.7c0-9.5,0-19,0-28.5c2.6,0,5.1,0,7.7,0c0,13.4,0,26.8,0,40.3c-0.1,0-0.3,0-0.4,0c-2.8,0-5.6,0-8.4,0
		c-0.4,0-0.5-0.1-0.7-0.4c-5.3-9.2-10.6-18.5-15.9-27.7c-0.1-0.1-0.1-0.2-0.3-0.4c0,9.5,0,19,0,28.5c-2.6,0-5.1,0-7.7,0
		c0-13.4,0-26.9,0-40.3c0.1,0,0.3,0,0.4,0c2.8,0,5.7,0,8.5,0c0.3,0,0.4,0.1,0.6,0.3c5.3,9.3,10.6,18.6,15.9,27.9
		C151.5,43.5,151.6,43.6,151.7,43.7C151.7,43.7,151.7,43.7,151.7,43.7z"/>
	<path class="st0" d="M267.3,40c0,5.2,0,10.4,0,15.6c-2.6,0-5.1,0-7.7,0c0-13.4,0-26.9,0-40.3c0.1,0,0.3,0,0.4,0
		c6.2,0,12.4,0,18.7,0c3.2,0,6.2,0.8,8.8,2.7c2.4,1.8,3.8,4.2,4.2,7.2c0.2,1.8,0.2,3.6-0.3,5.4c-0.7,2.4-2.2,4.2-4.4,5.5
		c-0.1,0.1-0.2,0.1-0.4,0.2c-0.1,0.1-0.2,0.1-0.4,0.2c0.1,0.1,0.2,0.1,0.2,0.2c2.4,1.5,3.7,3.6,3.9,6.4c0.2,1.8,0.1,3.7,0.2,5.5
		c0,1.7-0.1,3.4,0.4,5c0.2,0.7,0.4,1.3,0.5,2c-0.1,0-0.2,0-0.4,0c-2.3,0-4.7,0-7,0c-0.3,0-0.5-0.1-0.6-0.4c-0.4-1.2-0.6-2.5-0.6-3.7
		c0-2.1,0-4.3,0-6.4c0-0.6-0.1-1.2-0.2-1.8c-0.4-1.8-1.5-2.8-3.3-3.1c-0.7-0.1-1.3-0.2-2-0.2c-3.3,0-6.6,0-9.9,0
		C267.5,39.9,267.4,40,267.3,40z M267.3,33c0.1,0,0.2,0,0.3,0c3.5,0,7,0,10.4,0c1,0,2-0.2,3-0.6c1.6-0.7,2.9-1.9,3.1-3.7
		c0.1-0.9,0-1.8,0-2.7c-0.1-0.9-0.6-1.7-1.3-2.3c-1.2-1.1-2.7-1.4-4.2-1.4c-3.6,0-7.2,0-10.8,0c-0.1,0-0.3,0-0.4,0
		C267.3,25.9,267.3,29.5,267.3,33z"/>
	<path class="st0" d="M71.6,55.5c-10,0-19.9,0-29.8,0c0-13.4,0-26.9,0-40.3c9.8,0,19.6,0,29.4,0c0,2.4,0,4.7,0,7.1
		c-7.2,0-14.5,0-21.7,0c0,2.9,0,5.8,0,8.7c6.2,0,12.3,0,18.5,0c0,2.4,0,4.7,0,7.1c-6.2,0-12.4,0-18.6,0c0,3.4,0,6.8,0,10.3
		c7.4,0,14.8,0,22.2,0C71.6,50.8,71.6,53.2,71.6,55.5z"/>
	<path class="st0" d="M330.9,15.2c2.6,0,5.1,0,7.7,0c0,5.4,0,10.8,0,16.2c5.7,0,11.4,0,17.2,0c0-5.4,0-10.8,0-16.1
		c2.6,0,5.1,0,7.7,0c0,13.4,0,26.8,0,40.3c-2.5,0-5.1,0-7.7,0c0-5.6,0-11.3,0-17c-5.7,0-11.4,0-17.2,0c0,5.6,0,11.3,0,17
		c-2.6,0-5.2,0-7.8,0C330.9,42.1,330.9,28.7,330.9,15.2z"/>
	<path class="st0" d="M38.3,55.6c-0.6,0-1.1,0-1.6,0c-2.7,0-5.3,0-8,0c-0.3,0-0.5-0.1-0.6-0.3C24,49.5,20,43.7,16,38
		c-0.1-0.1-0.1-0.2-0.1-0.2c-0.4,0.4-0.9,0.8-1.4,1.3c-0.8,0.8-1.6,1.6-2.4,2.4c-0.2,0.2-0.3,0.4-0.3,0.7c0,4.3,0,8.5,0,12.8
		c0,0.2,0,0.3,0,0.5c-2.6,0-5.2,0-7.7,0c0-13.4,0-26.8,0-40.3c2.6,0,5.1,0,7.7,0c0,5.4,0,10.7,0,16.1c0,0,0.1,0,0.1,0.1
		c0.1-0.2,0.3-0.3,0.4-0.5c4.1-4.4,8.2-8.8,12.2-13.1c0.7-0.8,1.5-1.6,2.2-2.4c0.1-0.1,0.3-0.2,0.4-0.2c3.4,0,6.8,0,10.1,0
		c0,0,0.1,0,0.2,0c-5.5,5.6-10.9,11.2-16.4,16.8C26.9,39.9,32.5,47.7,38.3,55.6z"/>
	<path class="st0" d="M222.9,15.2c2.6,0,5.1,0,7.7,0c0,0.2,0,0.3,0,0.5c0,8.1,0,16.1,0,24.2c0,1.5,0.2,2.9,0.6,4.3
		c1,2.8,3,4.2,5.8,4.5c1.3,0.2,2.6,0.1,3.9-0.2c2.8-0.7,4.4-2.5,5-5.3c0.2-1.2,0.4-2.4,0.4-3.6c0-8,0-16,0-23.9c0-0.2,0-0.4,0-0.6
		c2.6,0,5.1,0,7.8,0c0,0.2,0,0.3,0,0.4c0,8,0,16,0,23.9c0,3-0.4,5.9-1.7,8.6c-1.9,4.2-5.1,6.7-9.6,7.6c-3.4,0.7-6.9,0.7-10.3-0.4
		c-4.7-1.6-7.6-4.9-8.9-9.7c-0.5-1.9-0.7-3.8-0.7-5.7c0-8.1,0-16.3,0-24.4C222.9,15.5,222.9,15.4,222.9,15.2z"/>
	<path class="st0" d="M296.9,15.2c0.2,0,0.3,0,0.4,0c5.7,0,11.4,0,17.1,0c3.2,0,6.1,0.9,8.6,2.9c2,1.7,3.2,3.8,3.8,6.4
		c0.7,3.1,0.6,6.1-0.6,9.1c-1.5,3.8-4.4,6.2-8.4,7.1c-1.1,0.3-2.3,0.4-3.5,0.4c-3.1,0.1-6.2,0-9.2,0c-0.1,0-0.3,0-0.5,0
		c0,4.8,0,9.6,0,14.4c-2.6,0-5.1,0-7.7,0C296.9,42.1,296.9,28.7,296.9,15.2z M304.6,34.1c0.2,0,0.3,0,0.5,0c2.8,0,5.6,0,8.3,0
		c0.5,0,1,0,1.5-0.1c2.4-0.2,3.9-1.6,4.4-3.9c0.3-1.2,0.2-2.5,0-3.7c-0.3-1.8-1.3-3.1-3.1-3.7c-0.7-0.2-1.4-0.4-2.1-0.4
		c-3.1,0-6.1,0-9.2,0c-0.1,0-0.2,0-0.4,0C304.6,26.3,304.6,30.2,304.6,34.1z"/>
	<path class="st0" d="M100.1,15.2c2.7,0,5.4,0,8.2,0c-0.2,0.8-0.5,1.5-0.7,2.2c-1.8,5.5-3.6,11.1-5.4,16.6c-2.3,7-4.6,14-6.8,21
		c-0.1,0.4-0.3,0.5-0.7,0.5c-2.4,0-4.9,0-7.4,0c-0.3,0-0.4-0.1-0.5-0.3c-2.2-6.7-4.4-13.4-6.6-20.1c-1.6-4.9-3.2-9.9-4.9-14.8
		c-0.6-1.7-1.1-3.4-1.7-5.1c2.7,0,5.4,0,8.2,0c3.1,10.3,6.1,20.6,9.2,31C94,35.9,97,25.6,100.1,15.2z"/>
	<path class="st0" d="M386.9,55.5c-2.6,0-5.1,0-7.7,0c0-0.2,0-0.3,0-0.5c0-4.8,0-9.7,0-14.5c0-0.2-0.1-0.5-0.2-0.7
		c-4.4-8-8.8-16.1-13.1-24.2c-0.1-0.1-0.1-0.2-0.2-0.4c0.2,0,0.3,0,0.5,0c2.6,0,5.1,0,7.7,0c0.4,0,0.6,0.1,0.7,0.5
		c1.3,2.7,2.7,5.3,4,8c1.4,2.8,2.8,5.6,4.2,8.4c0,0.1,0.1,0.2,0.2,0.3c0.3-0.6,0.6-1.1,0.8-1.6c2.6-5.1,5.2-10.2,7.8-15.3
		c0.1-0.2,0.2-0.3,0.4-0.3c2.7,0,5.5,0,8.2,0c0,0,0.1,0,0.2,0c-0.1,0.2-0.2,0.3-0.2,0.5c-4.3,8-8.7,15.9-13,23.9
		c-0.2,0.4-0.3,0.7-0.3,1.1c0,4.8,0,9.5,0,14.3C386.9,55.2,386.9,55.3,386.9,55.5z"/>
	<path class="st0" d="M120,55.5c-2.6,0-5.1,0-7.6,0c0-13.4,0-26.9,0-40.3c2.5,0,5.1,0,7.6,0C120,28.7,120,42.1,120,55.5z"/>
	<path class="st0" d="M164.4,47.4c2.7,0,5.5,0,8.2,0c0,2.7,0,5.4,0,8.2c-2.7,0-5.4,0-8.2,0C164.4,52.8,164.4,50.1,164.4,47.4z"/>
</g>
</svg>
